<?xml version="1.0"?>
<svg xmlns="http://www.w3.org/2000/svg" viewBox="0 0 64 64" width="512" height="512"><g id="outline"><rect x="55" y="38" width="2" height="2"/><rect x="51" y="38" width="2" height="2"/><rect x="47" y="38" width="2" height="2"/><path d="M61,34H58V31a1,1,0,0,0-1-1H56V25a3,3,0,0,0-3-3H51.414l-7.707-7.707A1,1,0,0,0,43,14H39a1,1,0,0,0-1,1v9a1,1,0,0,0,1,1,1,1,0,1,1-1,1H36a3,3,0,1,0,4-2.829V20h1.586L50,28.414V30H49a1,1,0,0,0-1,1v3H46a1,1,0,0,0-.832.445L43.465,37H42V32a1,1,0,0,0-1-1H32V20a1,1,0,0,0-1-1H7a1,1,0,0,0-1,1V31H5a1,1,0,0,0-1,1v5H3a1,1,0,0,0-.929,1.372l4,10A1,1,0,0,0,7,49H53a1,1,0,0,0,.747-.335l8-9A1,1,0,0,0,62,39V35A1,1,0,0,0,61,34ZM52,24h1a1,1,0,0,1,1,1v5H52Zm-9.293-5.707A1,1,0,0,0,42,18H40V16h2.586L50,23.414v2.172ZM50,32h6v2H50ZM32,33v2h2V33h2v2h2V33h2v4H30V33ZM20,21h2v2h2V21h2v2h2V21h2v4H20Zm0,6h2v2h2V27h2v2h2V27h2v4H20Zm0,6v2h2V33h2v2h2V33h2v4H18V33ZM8,21h2v2h2V21h2v2h2V21h2v4H8Zm0,6H18v4H16V29H14v2H12V29H10v2H8ZM6,33H8v2h2V33h2v2h2V33h2v4H6ZM52.551,47H7.677l-.8-2H54.329ZM60,38.62,56.106,43H6.077l-1.6-4H44a1,1,0,0,0,.832-.445L46.535,36H60Z"/></g></svg>
